<?xml version="1.0" encoding="utf-8" standalone="no"?>
<!DOCTYPE svg PUBLIC "-//W3C//DTD SVG 1.1//EN"
  "http://www.w3.org/Graphics/SVG/1.1/DTD/svg11.dtd">
<svg xmlns:xlink="http://www.w3.org/1999/xlink" width="1080pt" height="360pt" viewBox="0 0 1080 360" xmlns="http://www.w3.org/2000/svg" version="1.1">
 <metadata>
  <rdf:RDF xmlns:dc="http://purl.org/dc/elements/1.1/" xmlns:cc="http://creativecommons.org/ns#" xmlns:rdf="http://www.w3.org/1999/02/22-rdf-syntax-ns#">
   <cc:Work>
    <dc:type rdf:resource="http://purl.org/dc/dcmitype/StillImage"/>
    <dc:date>2023-05-24T15:56:40.953004</dc:date>
    <dc:format>image/svg+xml</dc:format>
    <dc:creator>
     <cc:Agent>
      <dc:title>Matplotlib v3.7.1, https://matplotlib.org/</dc:title>
     </cc:Agent>
    </dc:creator>
   </cc:Work>
  </rdf:RDF>
 </metadata>
 <defs>
  <style type="text/css">*{stroke-linejoin: round; stroke-linecap: butt}</style>
 </defs>
 <g id="figure_1">
  <g id="patch_1">
   <path d="M 0 360 
L 1080 360 
L 1080 0 
L 0 0 
z
" style="fill: #ffffff"/>
  </g>
  <g id="axes_1">
   <g id="patch_2">
    <path d="M 135 320.4 
L 972 320.4 
L 972 43.2 
L 135 43.2 
z
" style="fill: #ffffff"/>
   </g>
   <g id="PathCollection_1">
    <defs>
     <path id="m5f0847c57d" d="M 0 3 
C 0.795609 3 1.55874 2.683901 2.12132 2.12132 
C 2.683901 1.55874 3 0.795609 3 0 
C 3 -0.795609 2.683901 -1.55874 2.12132 -2.12132 
C 1.55874 -2.683901 0.795609 -3 0 -3 
C -0.795609 -3 -1.55874 -2.683901 -2.12132 -2.12132 
C -2.683901 -1.55874 -3 -0.795609 -3 0 
C -3 0.795609 -2.683901 1.55874 -2.12132 2.12132 
C -1.55874 2.683901 -0.795609 3 0 3 
z
" style="stroke: #ffff00"/>
    </defs>
    <g clip-path="url(#pb59ee2a5c5)">
     <use xlink:href="#m5f0847c57d" x="578.414722" y="173.548673" style="fill: #ffff00; stroke: #ffff00"/>
    </g>
   </g>
   <g id="PathCollection_2">
    <defs>
     <path id="m0f1f136e75" d="M 0 3 
C 0.795609 3 1.55874 2.683901 2.12132 2.12132 
C 2.683901 1.55874 3 0.795609 3 0 
C 3 -0.795609 2.683901 -1.55874 2.12132 -2.12132 
C 1.55874 -2.683901 0.795609 -3 0 -3 
C -0.795609 -3 -1.55874 -2.683901 -2.12132 -2.12132 
C -2.683901 -1.55874 -3 -0.795609 -3 0 
C -3 0.795609 -2.683901 1.55874 -2.12132 2.12132 
C -1.55874 2.683901 -0.795609 3 0 3 
z
" style="stroke: #ff0000"/>
    </defs>
    <g clip-path="url(#pb59ee2a5c5)">
     <use xlink:href="#m0f1f136e75" x="481.964113" y="177.181381" style="fill: #ff0000; stroke: #ff0000"/>
    </g>
   </g>
   <g id="PathCollection_3">
    <defs>
     <path id="mcba8ecef1a" d="M 0 3 
C 0.795609 3 1.55874 2.683901 2.12132 2.12132 
C 2.683901 1.55874 3 0.795609 3 0 
C 3 -0.795609 2.683901 -1.55874 2.12132 -2.12132 
C 1.55874 -2.683901 0.795609 -3 0 -3 
C -0.795609 -3 -1.55874 -2.683901 -2.12132 -2.12132 
C -2.683901 -1.55874 -3 -0.795609 -3 0 
C -3 0.795609 -2.683901 1.55874 -2.12132 2.12132 
C -1.55874 2.683901 -0.795609 3 0 3 
z
" style="stroke: #008000"/>
    </defs>
    <g clip-path="url(#pb59ee2a5c5)">
     <use xlink:href="#mcba8ecef1a" x="541.217219" y="185.867846" style="fill: #008000; stroke: #008000"/>
    </g>
   </g>
   <g id="PolyCollection_1">
    <defs>
     <path id="m538083b48d" d="M 578.414722 -149.047059 
L 578.414722 -186.451327 
L 481.964113 -182.818619 
L 541.217219 -174.132154 
L 541.217219 -149.047059 
L 541.217219 -149.047059 
L 481.964113 -149.047059 
L 578.414722 -149.047059 
z
" style="stroke: #008000; stroke-opacity: 0.3"/>
    </defs>
    <g clip-path="url(#pb59ee2a5c5)">
     <use xlink:href="#m538083b48d" x="0" y="360" style="fill: #008000; fill-opacity: 0.3; stroke: #008000; stroke-opacity: 0.3"/>
    </g>
   </g>
   <g id="matplotlib.axis_1">
    <g id="xtick_1">
     <g id="line2d_1">
      <path d="M 173.045455 320.4 
L 173.045455 43.2 
" clip-path="url(#pb59ee2a5c5)" style="fill: none; stroke-dasharray: 0.8,1.32; stroke-dashoffset: 0; stroke: #d2691e; stroke-width: 0.8"/>
     </g>
     <g id="line2d_2">
      <defs>
       <path id="me2179127cb" d="M 0 0 
L 0 3.5 
" style="stroke: #000000; stroke-width: 0.8"/>
      </defs>
      <g>
       <use xlink:href="#me2179127cb" x="173.045455" y="320.4" style="stroke: #000000; stroke-width: 0.8"/>
      </g>
     </g>
     <g id="text_1">
      <!-- 5 -->
      <g transform="translate(169.864205 334.998438) scale(0.1 -0.1)">
       <defs>
        <path id="DejaVuSans-35" d="M 691 4666 
L 3169 4666 
L 3169 4134 
L 1269 4134 
L 1269 2991 
Q 1406 3038 1543 3061 
Q 1681 3084 1819 3084 
Q 2600 3084 3056 2656 
Q 3513 2228 3513 1497 
Q 3513 744 3044 326 
Q 2575 -91 1722 -91 
Q 1428 -91 1123 -41 
Q 819 9 494 109 
L 494 744 
Q 775 591 1075 516 
Q 1375 441 1709 441 
Q 2250 441 2565 725 
Q 2881 1009 2881 1497 
Q 2881 1984 2565 2268 
Q 2250 2553 1709 2553 
Q 1456 2553 1204 2497 
Q 953 2441 691 2322 
L 691 4666 
z
" transform="scale(0.015625)"/>
       </defs>
       <use xlink:href="#DejaVuSans-35"/>
      </g>
     </g>
    </g>
    <g id="xtick_2">
     <g id="line2d_3">
      <path d="M 325.227273 320.4 
L 325.227273 43.2 
" clip-path="url(#pb59ee2a5c5)" style="fill: none; stroke-dasharray: 0.8,1.32; stroke-dashoffset: 0; stroke: #d2691e; stroke-width: 0.8"/>
     </g>
     <g id="line2d_4">
      <g>
       <use xlink:href="#me2179127cb" x="325.227273" y="320.4" style="stroke: #000000; stroke-width: 0.8"/>
      </g>
     </g>
     <g id="text_2">
      <!-- 10 -->
      <g transform="translate(318.864773 334.998438) scale(0.1 -0.1)">
       <defs>
        <path id="DejaVuSans-31" d="M 794 531 
L 1825 531 
L 1825 4091 
L 703 3866 
L 703 4441 
L 1819 4666 
L 2450 4666 
L 2450 531 
L 3481 531 
L 3481 0 
L 794 0 
L 794 531 
z
" transform="scale(0.015625)"/>
        <path id="DejaVuSans-30" d="M 2034 4250 
Q 1547 4250 1301 3770 
Q 1056 3291 1056 2328 
Q 1056 1369 1301 889 
Q 1547 409 2034 409 
Q 2525 409 2770 889 
Q 3016 1369 3016 2328 
Q 3016 3291 2770 3770 
Q 2525 4250 2034 4250 
z
M 2034 4750 
Q 2819 4750 3233 4129 
Q 3647 3509 3647 2328 
Q 3647 1150 3233 529 
Q 2819 -91 2034 -91 
Q 1250 -91 836 529 
Q 422 1150 422 2328 
Q 422 3509 836 4129 
Q 1250 4750 2034 4750 
z
" transform="scale(0.015625)"/>
       </defs>
       <use xlink:href="#DejaVuSans-31"/>
       <use xlink:href="#DejaVuSans-30" x="63.623047"/>
      </g>
     </g>
    </g>
    <g id="xtick_3">
     <g id="line2d_5">
      <path d="M 477.409091 320.4 
L 477.409091 43.2 
" clip-path="url(#pb59ee2a5c5)" style="fill: none; stroke-dasharray: 0.8,1.32; stroke-dashoffset: 0; stroke: #d2691e; stroke-width: 0.8"/>
     </g>
     <g id="line2d_6">
      <g>
       <use xlink:href="#me2179127cb" x="477.409091" y="320.4" style="stroke: #000000; stroke-width: 0.8"/>
      </g>
     </g>
     <g id="text_3">
      <!-- 15 -->
      <g transform="translate(471.046591 334.998438) scale(0.1 -0.1)">
       <use xlink:href="#DejaVuSans-31"/>
       <use xlink:href="#DejaVuSans-35" x="63.623047"/>
      </g>
     </g>
    </g>
    <g id="xtick_4">
     <g id="line2d_7">
      <path d="M 629.590909 320.4 
L 629.590909 43.2 
" clip-path="url(#pb59ee2a5c5)" style="fill: none; stroke-dasharray: 0.8,1.32; stroke-dashoffset: 0; stroke: #d2691e; stroke-width: 0.8"/>
     </g>
     <g id="line2d_8">
      <g>
       <use xlink:href="#me2179127cb" x="629.590909" y="320.4" style="stroke: #000000; stroke-width: 0.8"/>
      </g>
     </g>
     <g id="text_4">
      <!-- 20 -->
      <g transform="translate(623.228409 334.998438) scale(0.1 -0.1)">
       <defs>
        <path id="DejaVuSans-32" d="M 1228 531 
L 3431 531 
L 3431 0 
L 469 0 
L 469 531 
Q 828 903 1448 1529 
Q 2069 2156 2228 2338 
Q 2531 2678 2651 2914 
Q 2772 3150 2772 3378 
Q 2772 3750 2511 3984 
Q 2250 4219 1831 4219 
Q 1534 4219 1204 4116 
Q 875 4013 500 3803 
L 500 4441 
Q 881 4594 1212 4672 
Q 1544 4750 1819 4750 
Q 2544 4750 2975 4387 
Q 3406 4025 3406 3419 
Q 3406 3131 3298 2873 
Q 3191 2616 2906 2266 
Q 2828 2175 2409 1742 
Q 1991 1309 1228 531 
z
" transform="scale(0.015625)"/>
       </defs>
       <use xlink:href="#DejaVuSans-32"/>
       <use xlink:href="#DejaVuSans-30" x="63.623047"/>
      </g>
     </g>
    </g>
    <g id="xtick_5">
     <g id="line2d_9">
      <path d="M 781.772727 320.4 
L 781.772727 43.2 
" clip-path="url(#pb59ee2a5c5)" style="fill: none; stroke-dasharray: 0.8,1.32; stroke-dashoffset: 0; stroke: #d2691e; stroke-width: 0.8"/>
     </g>
     <g id="line2d_10">
      <g>
       <use xlink:href="#me2179127cb" x="781.772727" y="320.4" style="stroke: #000000; stroke-width: 0.8"/>
      </g>
     </g>
     <g id="text_5">
      <!-- 25 -->
      <g transform="translate(775.410227 334.998438) scale(0.1 -0.1)">
       <use xlink:href="#DejaVuSans-32"/>
       <use xlink:href="#DejaVuSans-35" x="63.623047"/>
      </g>
     </g>
    </g>
    <g id="xtick_6">
     <g id="line2d_11">
      <path d="M 933.954545 320.4 
L 933.954545 43.2 
" clip-path="url(#pb59ee2a5c5)" style="fill: none; stroke-dasharray: 0.8,1.32; stroke-dashoffset: 0; stroke: #d2691e; stroke-width: 0.8"/>
     </g>
     <g id="line2d_12">
      <g>
       <use xlink:href="#me2179127cb" x="933.954545" y="320.4" style="stroke: #000000; stroke-width: 0.8"/>
      </g>
     </g>
     <g id="text_6">
      <!-- 30 -->
      <g transform="translate(927.592045 334.998438) scale(0.1 -0.1)">
       <defs>
        <path id="DejaVuSans-33" d="M 2597 2516 
Q 3050 2419 3304 2112 
Q 3559 1806 3559 1356 
Q 3559 666 3084 287 
Q 2609 -91 1734 -91 
Q 1441 -91 1130 -33 
Q 819 25 488 141 
L 488 750 
Q 750 597 1062 519 
Q 1375 441 1716 441 
Q 2309 441 2620 675 
Q 2931 909 2931 1356 
Q 2931 1769 2642 2001 
Q 2353 2234 1838 2234 
L 1294 2234 
L 1294 2753 
L 1863 2753 
Q 2328 2753 2575 2939 
Q 2822 3125 2822 3475 
Q 2822 3834 2567 4026 
Q 2313 4219 1838 4219 
Q 1578 4219 1281 4162 
Q 984 4106 628 3988 
L 628 4550 
Q 988 4650 1302 4700 
Q 1616 4750 1894 4750 
Q 2613 4750 3031 4423 
Q 3450 4097 3450 3541 
Q 3450 3153 3228 2886 
Q 3006 2619 2597 2516 
z
" transform="scale(0.015625)"/>
       </defs>
       <use xlink:href="#DejaVuSans-33"/>
       <use xlink:href="#DejaVuSans-30" x="63.623047"/>
      </g>
     </g>
    </g>
    <g id="text_7">
     <!-- x1 -->
     <g transform="translate(547.359375 348.676562) scale(0.1 -0.1)">
      <defs>
       <path id="DejaVuSans-78" d="M 3513 3500 
L 2247 1797 
L 3578 0 
L 2900 0 
L 1881 1375 
L 863 0 
L 184 0 
L 1544 1831 
L 300 3500 
L 978 3500 
L 1906 2253 
L 2834 3500 
L 3513 3500 
z
" transform="scale(0.015625)"/>
      </defs>
      <use xlink:href="#DejaVuSans-78"/>
      <use xlink:href="#DejaVuSans-31" x="59.179688"/>
     </g>
    </g>
   </g>
   <g id="matplotlib.axis_2">
    <g id="ytick_1">
     <g id="line2d_13">
      <path d="M 135 305.823529 
L 972 305.823529 
" clip-path="url(#pb59ee2a5c5)" style="fill: none; stroke-dasharray: 0.8,1.32; stroke-dashoffset: 0; stroke: #d2691e; stroke-width: 0.8"/>
     </g>
     <g id="line2d_14">
      <defs>
       <path id="m35c6b5990c" d="M 0 0 
L -3.5 0 
" style="stroke: #000000; stroke-width: 0.8"/>
      </defs>
      <g>
       <use xlink:href="#m35c6b5990c" x="135" y="305.823529" style="stroke: #000000; stroke-width: 0.8"/>
      </g>
     </g>
     <g id="text_8">
      <!-- −30 -->
      <g transform="translate(106.895313 309.622748) scale(0.1 -0.1)">
       <defs>
        <path id="DejaVuSans-2212" d="M 678 2272 
L 4684 2272 
L 4684 1741 
L 678 1741 
L 678 2272 
z
" transform="scale(0.015625)"/>
       </defs>
       <use xlink:href="#DejaVuSans-2212"/>
       <use xlink:href="#DejaVuSans-33" x="83.789062"/>
       <use xlink:href="#DejaVuSans-30" x="147.412109"/>
      </g>
     </g>
    </g>
    <g id="ytick_2">
     <g id="line2d_15">
      <path d="M 135 274.2 
L 972 274.2 
" clip-path="url(#pb59ee2a5c5)" style="fill: none; stroke-dasharray: 0.8,1.32; stroke-dashoffset: 0; stroke: #d2691e; stroke-width: 0.8"/>
     </g>
     <g id="line2d_16">
      <g>
       <use xlink:href="#m35c6b5990c" x="135" y="274.2" style="stroke: #000000; stroke-width: 0.8"/>
      </g>
     </g>
     <g id="text_9">
      <!-- −20 -->
      <g transform="translate(106.895313 277.999219) scale(0.1 -0.1)">
       <use xlink:href="#DejaVuSans-2212"/>
       <use xlink:href="#DejaVuSans-32" x="83.789062"/>
       <use xlink:href="#DejaVuSans-30" x="147.412109"/>
      </g>
     </g>
    </g>
    <g id="ytick_3">
     <g id="line2d_17">
      <path d="M 135 242.576471 
L 972 242.576471 
" clip-path="url(#pb59ee2a5c5)" style="fill: none; stroke-dasharray: 0.8,1.32; stroke-dashoffset: 0; stroke: #d2691e; stroke-width: 0.8"/>
     </g>
     <g id="line2d_18">
      <g>
       <use xlink:href="#m35c6b5990c" x="135" y="242.576471" style="stroke: #000000; stroke-width: 0.8"/>
      </g>
     </g>
     <g id="text_10">
      <!-- −10 -->
      <g transform="translate(106.895313 246.375689) scale(0.1 -0.1)">
       <use xlink:href="#DejaVuSans-2212"/>
       <use xlink:href="#DejaVuSans-31" x="83.789062"/>
       <use xlink:href="#DejaVuSans-30" x="147.412109"/>
      </g>
     </g>
    </g>
    <g id="ytick_4">
     <g id="line2d_19">
      <path d="M 135 210.952941 
L 972 210.952941 
" clip-path="url(#pb59ee2a5c5)" style="fill: none; stroke-dasharray: 0.8,1.32; stroke-dashoffset: 0; stroke: #d2691e; stroke-width: 0.8"/>
     </g>
     <g id="line2d_20">
      <g>
       <use xlink:href="#m35c6b5990c" x="135" y="210.952941" style="stroke: #000000; stroke-width: 0.8"/>
      </g>
     </g>
     <g id="text_11">
      <!-- 0 -->
      <g transform="translate(121.6375 214.75216) scale(0.1 -0.1)">
       <use xlink:href="#DejaVuSans-30"/>
      </g>
     </g>
    </g>
    <g id="ytick_5">
     <g id="line2d_21">
      <path d="M 135 179.329412 
L 972 179.329412 
" clip-path="url(#pb59ee2a5c5)" style="fill: none; stroke-dasharray: 0.8,1.32; stroke-dashoffset: 0; stroke: #d2691e; stroke-width: 0.8"/>
     </g>
     <g id="line2d_22">
      <g>
       <use xlink:href="#m35c6b5990c" x="135" y="179.329412" style="stroke: #000000; stroke-width: 0.8"/>
      </g>
     </g>
     <g id="text_12">
      <!-- 10 -->
      <g transform="translate(115.275 183.128631) scale(0.1 -0.1)">
       <use xlink:href="#DejaVuSans-31"/>
       <use xlink:href="#DejaVuSans-30" x="63.623047"/>
      </g>
     </g>
    </g>
    <g id="ytick_6">
     <g id="line2d_23">
      <path d="M 135 147.705882 
L 972 147.705882 
" clip-path="url(#pb59ee2a5c5)" style="fill: none; stroke-dasharray: 0.8,1.32; stroke-dashoffset: 0; stroke: #d2691e; stroke-width: 0.8"/>
     </g>
     <g id="line2d_24">
      <g>
       <use xlink:href="#m35c6b5990c" x="135" y="147.705882" style="stroke: #000000; stroke-width: 0.8"/>
      </g>
     </g>
     <g id="text_13">
      <!-- 20 -->
      <g transform="translate(115.275 151.505101) scale(0.1 -0.1)">
       <use xlink:href="#DejaVuSans-32"/>
       <use xlink:href="#DejaVuSans-30" x="63.623047"/>
      </g>
     </g>
    </g>
    <g id="ytick_7">
     <g id="line2d_25">
      <path d="M 135 116.082353 
L 972 116.082353 
" clip-path="url(#pb59ee2a5c5)" style="fill: none; stroke-dasharray: 0.8,1.32; stroke-dashoffset: 0; stroke: #d2691e; stroke-width: 0.8"/>
     </g>
     <g id="line2d_26">
      <g>
       <use xlink:href="#m35c6b5990c" x="135" y="116.082353" style="stroke: #000000; stroke-width: 0.8"/>
      </g>
     </g>
     <g id="text_14">
      <!-- 30 -->
      <g transform="translate(115.275 119.881572) scale(0.1 -0.1)">
       <use xlink:href="#DejaVuSans-33"/>
       <use xlink:href="#DejaVuSans-30" x="63.623047"/>
      </g>
     </g>
    </g>
    <g id="ytick_8">
     <g id="line2d_27">
      <path d="M 135 84.458824 
L 972 84.458824 
" clip-path="url(#pb59ee2a5c5)" style="fill: none; stroke-dasharray: 0.8,1.32; stroke-dashoffset: 0; stroke: #d2691e; stroke-width: 0.8"/>
     </g>
     <g id="line2d_28">
      <g>
       <use xlink:href="#m35c6b5990c" x="135" y="84.458824" style="stroke: #000000; stroke-width: 0.8"/>
      </g>
     </g>
     <g id="text_15">
      <!-- 40 -->
      <g transform="translate(115.275 88.258042) scale(0.1 -0.1)">
       <defs>
        <path id="DejaVuSans-34" d="M 2419 4116 
L 825 1625 
L 2419 1625 
L 2419 4116 
z
M 2253 4666 
L 3047 4666 
L 3047 1625 
L 3713 1625 
L 3713 1100 
L 3047 1100 
L 3047 0 
L 2419 0 
L 2419 1100 
L 313 1100 
L 313 1709 
L 2253 4666 
z
" transform="scale(0.015625)"/>
       </defs>
       <use xlink:href="#DejaVuSans-34"/>
       <use xlink:href="#DejaVuSans-30" x="63.623047"/>
      </g>
     </g>
    </g>
    <g id="ytick_9">
     <g id="line2d_29">
      <path d="M 135 52.835294 
L 972 52.835294 
" clip-path="url(#pb59ee2a5c5)" style="fill: none; stroke-dasharray: 0.8,1.32; stroke-dashoffset: 0; stroke: #d2691e; stroke-width: 0.8"/>
     </g>
     <g id="line2d_30">
      <g>
       <use xlink:href="#m35c6b5990c" x="135" y="52.835294" style="stroke: #000000; stroke-width: 0.8"/>
      </g>
     </g>
     <g id="text_16">
      <!-- 50 -->
      <g transform="translate(115.275 56.634513) scale(0.1 -0.1)">
       <use xlink:href="#DejaVuSans-35"/>
       <use xlink:href="#DejaVuSans-30" x="63.623047"/>
      </g>
     </g>
    </g>
    <g id="text_17">
     <!-- x2 -->
     <g transform="translate(100.815625 187.940625) rotate(-90) scale(0.1 -0.1)">
      <use xlink:href="#DejaVuSans-78"/>
      <use xlink:href="#DejaVuSans-32" x="59.179688"/>
     </g>
    </g>
   </g>
   <g id="line2d_31">
    <path d="M 173.045455 307.8 
L 180.731405 305.254545 
L 188.417355 302.709091 
L 196.103306 300.163636 
L 203.789256 297.618182 
L 211.475207 295.072727 
L 219.161157 292.527273 
L 226.847107 289.981818 
L 234.533058 287.436364 
L 242.219008 284.890909 
L 249.904959 282.345455 
L 257.590909 279.8 
L 265.27686 277.254545 
L 272.96281 274.709091 
L 280.64876 272.163636 
L 288.334711 269.618182 
L 296.020661 267.072727 
L 303.706612 264.527273 
L 311.392562 261.981818 
L 319.078512 259.436364 
L 326.764463 256.890909 
L 334.450413 254.345455 
L 342.136364 251.8 
L 349.822314 249.254545 
L 357.508264 246.709091 
L 365.194215 244.163636 
L 372.880165 241.618182 
L 380.566116 239.072727 
L 388.252066 236.527273 
L 395.938017 233.981818 
L 403.623967 231.436364 
L 411.309917 228.890909 
L 418.995868 226.345455 
L 426.681818 223.8 
L 434.367769 221.254545 
L 442.053719 218.709091 
L 449.739669 216.163636 
L 457.42562 213.618182 
L 465.11157 211.072727 
L 472.797521 208.527273 
L 480.483471 205.981818 
L 488.169421 203.436364 
L 495.855372 200.890909 
L 503.541322 198.345455 
L 511.227273 195.8 
L 518.913223 193.254545 
L 526.599174 190.709091 
L 534.285124 188.163636 
L 541.971074 185.618182 
L 549.657025 183.072727 
L 557.342975 180.527273 
L 565.028926 177.981818 
L 572.714876 175.436364 
L 580.400826 172.890909 
L 588.086777 170.345455 
L 595.772727 167.8 
L 603.458678 165.254545 
L 611.144628 162.709091 
L 618.830579 160.163636 
L 626.516529 157.618182 
L 634.202479 155.072727 
L 641.88843 152.527273 
L 649.57438 149.981818 
L 657.260331 147.436364 
L 664.946281 144.890909 
L 672.632231 142.345455 
L 680.318182 139.8 
L 688.004132 137.254545 
L 695.690083 134.709091 
L 703.376033 132.163636 
L 711.061983 129.618182 
L 718.747934 127.072727 
L 726.433884 124.527273 
L 734.119835 121.981818 
L 741.805785 119.436364 
L 749.491736 116.890909 
L 757.177686 114.345455 
L 764.863636 111.8 
L 772.549587 109.254545 
L 780.235537 106.709091 
L 787.921488 104.163636 
L 795.607438 101.618182 
L 803.293388 99.072727 
L 810.979339 96.527273 
L 818.665289 93.981818 
L 826.35124 91.436364 
L 834.03719 88.890909 
L 841.72314 86.345455 
L 849.409091 83.8 
L 857.095041 81.254545 
L 864.780992 78.709091 
L 872.466942 76.163636 
L 880.152893 73.618182 
L 887.838843 71.072727 
L 895.524793 68.527273 
L 903.210744 65.981818 
L 910.896694 63.436364 
L 918.582645 60.890909 
L 926.268595 58.345455 
L 933.954545 55.8 
" clip-path="url(#pb59ee2a5c5)" style="fill: none; stroke-dasharray: 9.6,2.4,1.5,2.4; stroke-dashoffset: 0; stroke: #ff4500; stroke-width: 1.5"/>
   </g>
   <g id="line2d_32">
    <path d="M 173.045455 188.816471 
L 180.731405 188.526988 
L 188.417355 188.237504 
L 196.103306 187.948021 
L 203.789256 187.658538 
L 211.475207 187.369055 
L 219.161157 187.079572 
L 226.847107 186.790089 
L 234.533058 186.500606 
L 242.219008 186.211123 
L 249.904959 185.92164 
L 257.590909 185.632157 
L 265.27686 185.342674 
L 272.96281 185.053191 
L 280.64876 184.763708 
L 288.334711 184.474225 
L 296.020661 184.184742 
L 303.706612 183.895258 
L 311.392562 183.605775 
L 319.078512 183.316292 
L 326.764463 183.026809 
L 334.450413 182.737326 
L 342.136364 182.447843 
L 349.822314 182.15836 
L 357.508264 181.868877 
L 365.194215 181.579394 
L 372.880165 181.289911 
L 380.566116 181.000428 
L 388.252066 180.710945 
L 395.938017 180.421462 
L 403.623967 180.131979 
L 411.309917 179.842496 
L 418.995868 179.553012 
L 426.681818 179.263529 
L 434.367769 178.974046 
L 442.053719 178.684563 
L 449.739669 178.39508 
L 457.42562 178.105597 
L 465.11157 177.816114 
L 472.797521 177.526631 
L 480.483471 177.237148 
L 488.169421 176.947665 
L 495.855372 176.658182 
L 503.541322 176.368699 
L 511.227273 176.079216 
L 518.913223 175.789733 
L 526.599174 175.50025 
L 534.285124 175.210766 
L 541.971074 174.921283 
L 549.657025 174.6318 
L 557.342975 174.342317 
L 565.028926 174.052834 
L 572.714876 173.763351 
L 580.400826 173.473868 
L 588.086777 173.184385 
L 595.772727 172.894902 
L 603.458678 172.605419 
L 611.144628 172.315936 
L 618.830579 172.026453 
L 626.516529 171.73697 
L 634.202479 171.447487 
L 641.88843 171.158004 
L 649.57438 170.86852 
L 657.260331 170.579037 
L 664.946281 170.289554 
L 672.632231 170.000071 
L 680.318182 169.710588 
L 688.004132 169.421105 
L 695.690083 169.131622 
L 703.376033 168.842139 
L 711.061983 168.552656 
L 718.747934 168.263173 
L 726.433884 167.97369 
L 734.119835 167.684207 
L 741.805785 167.394724 
L 749.491736 167.105241 
L 757.177686 166.815758 
L 764.863636 166.526275 
L 772.549587 166.236791 
L 780.235537 165.947308 
L 787.921488 165.657825 
L 795.607438 165.368342 
L 803.293388 165.078859 
L 810.979339 164.789376 
L 818.665289 164.499893 
L 826.35124 164.21041 
L 834.03719 163.920927 
L 841.72314 163.631444 
L 849.409091 163.341961 
L 857.095041 163.052478 
L 864.780992 162.762995 
L 872.466942 162.473512 
L 880.152893 162.184029 
L 887.838843 161.894545 
L 895.524793 161.605062 
L 903.210744 161.315579 
L 910.896694 161.026096 
L 918.582645 160.736613 
L 926.268595 160.44713 
L 933.954545 160.157647 
" clip-path="url(#pb59ee2a5c5)" style="fill: none; stroke-dasharray: 1.5,2.475; stroke-dashoffset: 0; stroke: #6b8e23; stroke-width: 1.5"/>
   </g>
   <g id="line2d_33">
    <path d="M 173.045455 131.894118 
L 180.731405 133.020873 
L 188.417355 134.147628 
L 196.103306 135.274383 
L 203.789256 136.401138 
L 211.475207 137.527893 
L 219.161157 138.654648 
L 226.847107 139.781403 
L 234.533058 140.908158 
L 242.219008 142.034913 
L 249.904959 143.161668 
L 257.590909 144.288423 
L 265.27686 145.415178 
L 272.96281 146.541933 
L 280.64876 147.668688 
L 288.334711 148.795444 
L 296.020661 149.922199 
L 303.706612 151.048954 
L 311.392562 152.175709 
L 319.078512 153.302464 
L 326.764463 154.429219 
L 334.450413 155.555974 
L 342.136364 156.682729 
L 349.822314 157.809484 
L 357.508264 158.936239 
L 365.194215 160.062994 
L 372.880165 161.189749 
L 380.566116 162.316504 
L 388.252066 163.443259 
L 395.938017 164.570014 
L 403.623967 165.696769 
L 411.309917 166.823525 
L 418.995868 167.95028 
L 426.681818 169.077035 
L 434.367769 170.20379 
L 442.053719 171.330545 
L 449.739669 172.4573 
L 457.42562 173.584055 
L 465.11157 174.71081 
L 472.797521 175.837565 
L 480.483471 176.96432 
L 488.169421 178.091075 
L 495.855372 179.21783 
L 503.541322 180.344585 
L 511.227273 181.47134 
L 518.913223 182.598095 
L 526.599174 183.72485 
L 534.285124 184.851605 
L 541.971074 185.978361 
L 549.657025 187.105116 
L 557.342975 188.231871 
L 565.028926 189.358626 
L 572.714876 190.485381 
L 580.400826 191.612136 
L 588.086777 192.738891 
L 595.772727 193.865646 
L 603.458678 194.992401 
L 611.144628 196.119156 
L 618.830579 197.245911 
L 626.516529 198.372666 
L 634.202479 199.499421 
L 641.88843 200.626176 
L 649.57438 201.752931 
L 657.260331 202.879686 
L 664.946281 204.006442 
L 672.632231 205.133197 
L 680.318182 206.259952 
L 688.004132 207.386707 
L 695.690083 208.513462 
L 703.376033 209.640217 
L 711.061983 210.766972 
L 718.747934 211.893727 
L 726.433884 213.020482 
L 734.119835 214.147237 
L 741.805785 215.273992 
L 749.491736 216.400747 
L 757.177686 217.527502 
L 764.863636 218.654257 
L 772.549587 219.781012 
L 780.235537 220.907767 
L 787.921488 222.034523 
L 795.607438 223.161278 
L 803.293388 224.288033 
L 810.979339 225.414788 
L 818.665289 226.541543 
L 826.35124 227.668298 
L 834.03719 228.795053 
L 841.72314 229.921808 
L 849.409091 231.048563 
L 857.095041 232.175318 
L 864.780992 233.302073 
L 872.466942 234.428828 
L 880.152893 235.555583 
L 887.838843 236.682338 
L 895.524793 237.809093 
L 903.210744 238.935848 
L 910.896694 240.062603 
L 918.582645 241.189359 
L 926.268595 242.316114 
L 933.954545 243.442869 
" clip-path="url(#pb59ee2a5c5)" style="fill: none; stroke-dasharray: 5.55,2.4; stroke-dashoffset: 0; stroke: #c71585; stroke-width: 1.5"/>
   </g>
   <g id="patch_3">
    <path d="M 135 320.4 
L 135 43.2 
" style="fill: none; stroke: #000000; stroke-width: 0.8; stroke-linejoin: miter; stroke-linecap: square"/>
   </g>
   <g id="patch_4">
    <path d="M 972 320.4 
L 972 43.2 
" style="fill: none; stroke: #000000; stroke-width: 0.8; stroke-linejoin: miter; stroke-linecap: square"/>
   </g>
   <g id="patch_5">
    <path d="M 135 320.4 
L 972 320.4 
" style="fill: none; stroke: #000000; stroke-width: 0.8; stroke-linejoin: miter; stroke-linecap: square"/>
   </g>
   <g id="patch_6">
    <path d="M 135 43.2 
L 972 43.2 
" style="fill: none; stroke: #000000; stroke-width: 0.8; stroke-linejoin: miter; stroke-linecap: square"/>
   </g>
   <g id="text_18">
    <!-- 10.2 x1 – 3.2 x2 = 149 -->
    <g transform="translate(198.987384 287.601176) rotate(-15) scale(0.12 -0.12)">
     <defs>
      <path id="DejaVuSans-2e" d="M 684 794 
L 1344 794 
L 1344 0 
L 684 0 
L 684 794 
z
" transform="scale(0.015625)"/>
      <path id="DejaVuSans-20" transform="scale(0.015625)"/>
      <path id="DejaVuSans-2013" d="M 313 1978 
L 2888 1978 
L 2888 1528 
L 313 1528 
L 313 1978 
z
" transform="scale(0.015625)"/>
      <path id="DejaVuSans-3d" d="M 678 2906 
L 4684 2906 
L 4684 2381 
L 678 2381 
L 678 2906 
z
M 678 1631 
L 4684 1631 
L 4684 1100 
L 678 1100 
L 678 1631 
z
" transform="scale(0.015625)"/>
      <path id="DejaVuSans-39" d="M 703 97 
L 703 672 
Q 941 559 1184 500 
Q 1428 441 1663 441 
Q 2288 441 2617 861 
Q 2947 1281 2994 2138 
Q 2813 1869 2534 1725 
Q 2256 1581 1919 1581 
Q 1219 1581 811 2004 
Q 403 2428 403 3163 
Q 403 3881 828 4315 
Q 1253 4750 1959 4750 
Q 2769 4750 3195 4129 
Q 3622 3509 3622 2328 
Q 3622 1225 3098 567 
Q 2575 -91 1691 -91 
Q 1453 -91 1209 -44 
Q 966 3 703 97 
z
M 1959 2075 
Q 2384 2075 2632 2365 
Q 2881 2656 2881 3163 
Q 2881 3666 2632 3958 
Q 2384 4250 1959 4250 
Q 1534 4250 1286 3958 
Q 1038 3666 1038 3163 
Q 1038 2656 1286 2365 
Q 1534 2075 1959 2075 
z
" transform="scale(0.015625)"/>
     </defs>
     <use xlink:href="#DejaVuSans-31"/>
     <use xlink:href="#DejaVuSans-30" x="63.623047"/>
     <use xlink:href="#DejaVuSans-2e" x="127.246094"/>
     <use xlink:href="#DejaVuSans-32" x="159.033203"/>
     <use xlink:href="#DejaVuSans-20" x="222.65625"/>
     <use xlink:href="#DejaVuSans-78" x="254.443359"/>
     <use xlink:href="#DejaVuSans-31" x="313.623047"/>
     <use xlink:href="#DejaVuSans-20" x="377.246094"/>
     <use xlink:href="#DejaVuSans-2013" x="409.033203"/>
     <use xlink:href="#DejaVuSans-20" x="459.033203"/>
     <use xlink:href="#DejaVuSans-33" x="490.820312"/>
     <use xlink:href="#DejaVuSans-2e" x="554.443359"/>
     <use xlink:href="#DejaVuSans-32" x="586.230469"/>
     <use xlink:href="#DejaVuSans-20" x="649.853516"/>
     <use xlink:href="#DejaVuSans-78" x="681.640625"/>
     <use xlink:href="#DejaVuSans-32" x="740.820312"/>
     <use xlink:href="#DejaVuSans-20" x="804.443359"/>
     <use xlink:href="#DejaVuSans-3d" x="836.230469"/>
     <use xlink:href="#DejaVuSans-20" x="920.019531"/>
     <use xlink:href="#DejaVuSans-31" x="951.806641"/>
     <use xlink:href="#DejaVuSans-34" x="1015.429688"/>
     <use xlink:href="#DejaVuSans-39" x="1079.052734"/>
    </g>
   </g>
   <g id="text_19">
    <!-- – 5.8 x1 + 16 x2 = 83 -->
    <g transform="translate(198.40142 183.158493) scale(0.12 -0.12)">
     <defs>
      <path id="DejaVuSans-38" d="M 2034 2216 
Q 1584 2216 1326 1975 
Q 1069 1734 1069 1313 
Q 1069 891 1326 650 
Q 1584 409 2034 409 
Q 2484 409 2743 651 
Q 3003 894 3003 1313 
Q 3003 1734 2745 1975 
Q 2488 2216 2034 2216 
z
M 1403 2484 
Q 997 2584 770 2862 
Q 544 3141 544 3541 
Q 544 4100 942 4425 
Q 1341 4750 2034 4750 
Q 2731 4750 3128 4425 
Q 3525 4100 3525 3541 
Q 3525 3141 3298 2862 
Q 3072 2584 2669 2484 
Q 3125 2378 3379 2068 
Q 3634 1759 3634 1313 
Q 3634 634 3220 271 
Q 2806 -91 2034 -91 
Q 1263 -91 848 271 
Q 434 634 434 1313 
Q 434 1759 690 2068 
Q 947 2378 1403 2484 
z
M 1172 3481 
Q 1172 3119 1398 2916 
Q 1625 2713 2034 2713 
Q 2441 2713 2670 2916 
Q 2900 3119 2900 3481 
Q 2900 3844 2670 4047 
Q 2441 4250 2034 4250 
Q 1625 4250 1398 4047 
Q 1172 3844 1172 3481 
z
" transform="scale(0.015625)"/>
      <path id="DejaVuSans-2b" d="M 2944 4013 
L 2944 2272 
L 4684 2272 
L 4684 1741 
L 2944 1741 
L 2944 0 
L 2419 0 
L 2419 1741 
L 678 1741 
L 678 2272 
L 2419 2272 
L 2419 4013 
L 2944 4013 
z
" transform="scale(0.015625)"/>
      <path id="DejaVuSans-36" d="M 2113 2584 
Q 1688 2584 1439 2293 
Q 1191 2003 1191 1497 
Q 1191 994 1439 701 
Q 1688 409 2113 409 
Q 2538 409 2786 701 
Q 3034 994 3034 1497 
Q 3034 2003 2786 2293 
Q 2538 2584 2113 2584 
z
M 3366 4563 
L 3366 3988 
Q 3128 4100 2886 4159 
Q 2644 4219 2406 4219 
Q 1781 4219 1451 3797 
Q 1122 3375 1075 2522 
Q 1259 2794 1537 2939 
Q 1816 3084 2150 3084 
Q 2853 3084 3261 2657 
Q 3669 2231 3669 1497 
Q 3669 778 3244 343 
Q 2819 -91 2113 -91 
Q 1303 -91 875 529 
Q 447 1150 447 2328 
Q 447 3434 972 4092 
Q 1497 4750 2381 4750 
Q 2619 4750 2861 4703 
Q 3103 4656 3366 4563 
z
" transform="scale(0.015625)"/>
     </defs>
     <use xlink:href="#DejaVuSans-2013"/>
     <use xlink:href="#DejaVuSans-20" x="50"/>
     <use xlink:href="#DejaVuSans-35" x="81.787109"/>
     <use xlink:href="#DejaVuSans-2e" x="145.410156"/>
     <use xlink:href="#DejaVuSans-38" x="177.197266"/>
     <use xlink:href="#DejaVuSans-20" x="240.820312"/>
     <use xlink:href="#DejaVuSans-78" x="272.607422"/>
     <use xlink:href="#DejaVuSans-31" x="331.787109"/>
     <use xlink:href="#DejaVuSans-20" x="395.410156"/>
     <use xlink:href="#DejaVuSans-2b" x="427.197266"/>
     <use xlink:href="#DejaVuSans-20" x="510.986328"/>
     <use xlink:href="#DejaVuSans-31" x="542.773438"/>
     <use xlink:href="#DejaVuSans-36" x="606.396484"/>
     <use xlink:href="#DejaVuSans-20" x="670.019531"/>
     <use xlink:href="#DejaVuSans-78" x="701.806641"/>
     <use xlink:href="#DejaVuSans-32" x="760.986328"/>
     <use xlink:href="#DejaVuSans-20" x="824.609375"/>
     <use xlink:href="#DejaVuSans-3d" x="856.396484"/>
     <use xlink:href="#DejaVuSans-20" x="940.185547"/>
     <use xlink:href="#DejaVuSans-38" x="971.972656"/>
     <use xlink:href="#DejaVuSans-33" x="1035.595703"/>
    </g>
   </g>
   <g id="text_20">
    <!-- 10.3 x1 + 7.3 x2 = 234 -->
    <g transform="translate(193.889034 137.510861) rotate(-353) scale(0.12 -0.12)">
     <defs>
      <path id="DejaVuSans-37" d="M 525 4666 
L 3525 4666 
L 3525 4397 
L 1831 0 
L 1172 0 
L 2766 4134 
L 525 4134 
L 525 4666 
z
" transform="scale(0.015625)"/>
     </defs>
     <use xlink:href="#DejaVuSans-31"/>
     <use xlink:href="#DejaVuSans-30" x="63.623047"/>
     <use xlink:href="#DejaVuSans-2e" x="127.246094"/>
     <use xlink:href="#DejaVuSans-33" x="159.033203"/>
     <use xlink:href="#DejaVuSans-20" x="222.65625"/>
     <use xlink:href="#DejaVuSans-78" x="254.443359"/>
     <use xlink:href="#DejaVuSans-31" x="313.623047"/>
     <use xlink:href="#DejaVuSans-20" x="377.246094"/>
     <use xlink:href="#DejaVuSans-2b" x="409.033203"/>
     <use xlink:href="#DejaVuSans-20" x="492.822266"/>
     <use xlink:href="#DejaVuSans-37" x="524.609375"/>
     <use xlink:href="#DejaVuSans-2e" x="588.232422"/>
     <use xlink:href="#DejaVuSans-33" x="620.019531"/>
     <use xlink:href="#DejaVuSans-20" x="683.642578"/>
     <use xlink:href="#DejaVuSans-78" x="715.429688"/>
     <use xlink:href="#DejaVuSans-32" x="774.609375"/>
     <use xlink:href="#DejaVuSans-20" x="838.232422"/>
     <use xlink:href="#DejaVuSans-3d" x="870.019531"/>
     <use xlink:href="#DejaVuSans-20" x="953.808594"/>
     <use xlink:href="#DejaVuSans-32" x="985.595703"/>
     <use xlink:href="#DejaVuSans-33" x="1049.21875"/>
     <use xlink:href="#DejaVuSans-34" x="1112.841797"/>
    </g>
   </g>
   <g id="patch_7">
    <path d="M 534.101028 360.231404 
Q 536.167469 273.943032 538.207142 188.772373 
" style="fill: none; stroke: #000000; stroke-linecap: round"/>
    <path d="M 536.11195 192.723345 
L 538.207142 188.772373 
L 540.110804 192.819109 
" style="fill: none; stroke: #000000; stroke-linecap: round"/>
   </g>
   <g id="text_21">
    <!-- the intersection between eq1 and eq3 -->
    <g transform="translate(438.187784 371.829963) scale(0.1 -0.1)">
     <defs>
      <path id="DejaVuSans-74" d="M 1172 4494 
L 1172 3500 
L 2356 3500 
L 2356 3053 
L 1172 3053 
L 1172 1153 
Q 1172 725 1289 603 
Q 1406 481 1766 481 
L 2356 481 
L 2356 0 
L 1766 0 
Q 1100 0 847 248 
Q 594 497 594 1153 
L 594 3053 
L 172 3053 
L 172 3500 
L 594 3500 
L 594 4494 
L 1172 4494 
z
" transform="scale(0.015625)"/>
      <path id="DejaVuSans-68" d="M 3513 2113 
L 3513 0 
L 2938 0 
L 2938 2094 
Q 2938 2591 2744 2837 
Q 2550 3084 2163 3084 
Q 1697 3084 1428 2787 
Q 1159 2491 1159 1978 
L 1159 0 
L 581 0 
L 581 4863 
L 1159 4863 
L 1159 2956 
Q 1366 3272 1645 3428 
Q 1925 3584 2291 3584 
Q 2894 3584 3203 3211 
Q 3513 2838 3513 2113 
z
" transform="scale(0.015625)"/>
      <path id="DejaVuSans-65" d="M 3597 1894 
L 3597 1613 
L 953 1613 
Q 991 1019 1311 708 
Q 1631 397 2203 397 
Q 2534 397 2845 478 
Q 3156 559 3463 722 
L 3463 178 
Q 3153 47 2828 -22 
Q 2503 -91 2169 -91 
Q 1331 -91 842 396 
Q 353 884 353 1716 
Q 353 2575 817 3079 
Q 1281 3584 2069 3584 
Q 2775 3584 3186 3129 
Q 3597 2675 3597 1894 
z
M 3022 2063 
Q 3016 2534 2758 2815 
Q 2500 3097 2075 3097 
Q 1594 3097 1305 2825 
Q 1016 2553 972 2059 
L 3022 2063 
z
" transform="scale(0.015625)"/>
      <path id="DejaVuSans-69" d="M 603 3500 
L 1178 3500 
L 1178 0 
L 603 0 
L 603 3500 
z
M 603 4863 
L 1178 4863 
L 1178 4134 
L 603 4134 
L 603 4863 
z
" transform="scale(0.015625)"/>
      <path id="DejaVuSans-6e" d="M 3513 2113 
L 3513 0 
L 2938 0 
L 2938 2094 
Q 2938 2591 2744 2837 
Q 2550 3084 2163 3084 
Q 1697 3084 1428 2787 
Q 1159 2491 1159 1978 
L 1159 0 
L 581 0 
L 581 3500 
L 1159 3500 
L 1159 2956 
Q 1366 3272 1645 3428 
Q 1925 3584 2291 3584 
Q 2894 3584 3203 3211 
Q 3513 2838 3513 2113 
z
" transform="scale(0.015625)"/>
      <path id="DejaVuSans-72" d="M 2631 2963 
Q 2534 3019 2420 3045 
Q 2306 3072 2169 3072 
Q 1681 3072 1420 2755 
Q 1159 2438 1159 1844 
L 1159 0 
L 581 0 
L 581 3500 
L 1159 3500 
L 1159 2956 
Q 1341 3275 1631 3429 
Q 1922 3584 2338 3584 
Q 2397 3584 2469 3576 
Q 2541 3569 2628 3553 
L 2631 2963 
z
" transform="scale(0.015625)"/>
      <path id="DejaVuSans-73" d="M 2834 3397 
L 2834 2853 
Q 2591 2978 2328 3040 
Q 2066 3103 1784 3103 
Q 1356 3103 1142 2972 
Q 928 2841 928 2578 
Q 928 2378 1081 2264 
Q 1234 2150 1697 2047 
L 1894 2003 
Q 2506 1872 2764 1633 
Q 3022 1394 3022 966 
Q 3022 478 2636 193 
Q 2250 -91 1575 -91 
Q 1294 -91 989 -36 
Q 684 19 347 128 
L 347 722 
Q 666 556 975 473 
Q 1284 391 1588 391 
Q 1994 391 2212 530 
Q 2431 669 2431 922 
Q 2431 1156 2273 1281 
Q 2116 1406 1581 1522 
L 1381 1569 
Q 847 1681 609 1914 
Q 372 2147 372 2553 
Q 372 3047 722 3315 
Q 1072 3584 1716 3584 
Q 2034 3584 2315 3537 
Q 2597 3491 2834 3397 
z
" transform="scale(0.015625)"/>
      <path id="DejaVuSans-63" d="M 3122 3366 
L 3122 2828 
Q 2878 2963 2633 3030 
Q 2388 3097 2138 3097 
Q 1578 3097 1268 2742 
Q 959 2388 959 1747 
Q 959 1106 1268 751 
Q 1578 397 2138 397 
Q 2388 397 2633 464 
Q 2878 531 3122 666 
L 3122 134 
Q 2881 22 2623 -34 
Q 2366 -91 2075 -91 
Q 1284 -91 818 406 
Q 353 903 353 1747 
Q 353 2603 823 3093 
Q 1294 3584 2113 3584 
Q 2378 3584 2631 3529 
Q 2884 3475 3122 3366 
z
" transform="scale(0.015625)"/>
      <path id="DejaVuSans-6f" d="M 1959 3097 
Q 1497 3097 1228 2736 
Q 959 2375 959 1747 
Q 959 1119 1226 758 
Q 1494 397 1959 397 
Q 2419 397 2687 759 
Q 2956 1122 2956 1747 
Q 2956 2369 2687 2733 
Q 2419 3097 1959 3097 
z
M 1959 3584 
Q 2709 3584 3137 3096 
Q 3566 2609 3566 1747 
Q 3566 888 3137 398 
Q 2709 -91 1959 -91 
Q 1206 -91 779 398 
Q 353 888 353 1747 
Q 353 2609 779 3096 
Q 1206 3584 1959 3584 
z
" transform="scale(0.015625)"/>
      <path id="DejaVuSans-62" d="M 3116 1747 
Q 3116 2381 2855 2742 
Q 2594 3103 2138 3103 
Q 1681 3103 1420 2742 
Q 1159 2381 1159 1747 
Q 1159 1113 1420 752 
Q 1681 391 2138 391 
Q 2594 391 2855 752 
Q 3116 1113 3116 1747 
z
M 1159 2969 
Q 1341 3281 1617 3432 
Q 1894 3584 2278 3584 
Q 2916 3584 3314 3078 
Q 3713 2572 3713 1747 
Q 3713 922 3314 415 
Q 2916 -91 2278 -91 
Q 1894 -91 1617 61 
Q 1341 213 1159 525 
L 1159 0 
L 581 0 
L 581 4863 
L 1159 4863 
L 1159 2969 
z
" transform="scale(0.015625)"/>
      <path id="DejaVuSans-77" d="M 269 3500 
L 844 3500 
L 1563 769 
L 2278 3500 
L 2956 3500 
L 3675 769 
L 4391 3500 
L 4966 3500 
L 4050 0 
L 3372 0 
L 2619 2869 
L 1863 0 
L 1184 0 
L 269 3500 
z
" transform="scale(0.015625)"/>
      <path id="DejaVuSans-71" d="M 947 1747 
Q 947 1113 1208 752 
Q 1469 391 1925 391 
Q 2381 391 2643 752 
Q 2906 1113 2906 1747 
Q 2906 2381 2643 2742 
Q 2381 3103 1925 3103 
Q 1469 3103 1208 2742 
Q 947 2381 947 1747 
z
M 2906 525 
Q 2725 213 2448 61 
Q 2172 -91 1784 -91 
Q 1150 -91 751 415 
Q 353 922 353 1747 
Q 353 2572 751 3078 
Q 1150 3584 1784 3584 
Q 2172 3584 2448 3432 
Q 2725 3281 2906 2969 
L 2906 3500 
L 3481 3500 
L 3481 -1331 
L 2906 -1331 
L 2906 525 
z
" transform="scale(0.015625)"/>
      <path id="DejaVuSans-61" d="M 2194 1759 
Q 1497 1759 1228 1600 
Q 959 1441 959 1056 
Q 959 750 1161 570 
Q 1363 391 1709 391 
Q 2188 391 2477 730 
Q 2766 1069 2766 1631 
L 2766 1759 
L 2194 1759 
z
M 3341 1997 
L 3341 0 
L 2766 0 
L 2766 531 
Q 2569 213 2275 61 
Q 1981 -91 1556 -91 
Q 1019 -91 701 211 
Q 384 513 384 1019 
Q 384 1609 779 1909 
Q 1175 2209 1959 2209 
L 2766 2209 
L 2766 2266 
Q 2766 2663 2505 2880 
Q 2244 3097 1772 3097 
Q 1472 3097 1187 3025 
Q 903 2953 641 2809 
L 641 3341 
Q 956 3463 1253 3523 
Q 1550 3584 1831 3584 
Q 2591 3584 2966 3190 
Q 3341 2797 3341 1997 
z
" transform="scale(0.015625)"/>
      <path id="DejaVuSans-64" d="M 2906 2969 
L 2906 4863 
L 3481 4863 
L 3481 0 
L 2906 0 
L 2906 525 
Q 2725 213 2448 61 
Q 2172 -91 1784 -91 
Q 1150 -91 751 415 
Q 353 922 353 1747 
Q 353 2572 751 3078 
Q 1150 3584 1784 3584 
Q 2172 3584 2448 3432 
Q 2725 3281 2906 2969 
z
M 947 1747 
Q 947 1113 1208 752 
Q 1469 391 1925 391 
Q 2381 391 2643 752 
Q 2906 1113 2906 1747 
Q 2906 2381 2643 2742 
Q 2381 3103 1925 3103 
Q 1469 3103 1208 2742 
Q 947 2381 947 1747 
z
" transform="scale(0.015625)"/>
     </defs>
     <use xlink:href="#DejaVuSans-74"/>
     <use xlink:href="#DejaVuSans-68" x="39.208984"/>
     <use xlink:href="#DejaVuSans-65" x="102.587891"/>
     <use xlink:href="#DejaVuSans-20" x="164.111328"/>
     <use xlink:href="#DejaVuSans-69" x="195.898438"/>
     <use xlink:href="#DejaVuSans-6e" x="223.681641"/>
     <use xlink:href="#DejaVuSans-74" x="287.060547"/>
     <use xlink:href="#DejaVuSans-65" x="326.269531"/>
     <use xlink:href="#DejaVuSans-72" x="387.792969"/>
     <use xlink:href="#DejaVuSans-73" x="428.90625"/>
     <use xlink:href="#DejaVuSans-65" x="481.005859"/>
     <use xlink:href="#DejaVuSans-63" x="542.529297"/>
     <use xlink:href="#DejaVuSans-74" x="597.509766"/>
     <use xlink:href="#DejaVuSans-69" x="636.71875"/>
     <use xlink:href="#DejaVuSans-6f" x="664.501953"/>
     <use xlink:href="#DejaVuSans-6e" x="725.683594"/>
     <use xlink:href="#DejaVuSans-20" x="789.0625"/>
     <use xlink:href="#DejaVuSans-62" x="820.849609"/>
     <use xlink:href="#DejaVuSans-65" x="884.326172"/>
     <use xlink:href="#DejaVuSans-74" x="945.849609"/>
     <use xlink:href="#DejaVuSans-77" x="985.058594"/>
     <use xlink:href="#DejaVuSans-65" x="1066.845703"/>
     <use xlink:href="#DejaVuSans-65" x="1128.369141"/>
     <use xlink:href="#DejaVuSans-6e" x="1189.892578"/>
     <use xlink:href="#DejaVuSans-20" x="1253.271484"/>
     <use xlink:href="#DejaVuSans-65" x="1285.058594"/>
     <use xlink:href="#DejaVuSans-71" x="1346.582031"/>
     <use xlink:href="#DejaVuSans-31" x="1410.058594"/>
     <use xlink:href="#DejaVuSans-20" x="1473.681641"/>
     <use xlink:href="#DejaVuSans-61" x="1505.46875"/>
     <use xlink:href="#DejaVuSans-6e" x="1566.748047"/>
     <use xlink:href="#DejaVuSans-64" x="1630.126953"/>
     <use xlink:href="#DejaVuSans-20" x="1693.603516"/>
     <use xlink:href="#DejaVuSans-65" x="1725.390625"/>
     <use xlink:href="#DejaVuSans-71" x="1786.914062"/>
     <use xlink:href="#DejaVuSans-33" x="1850.390625"/>
    </g>
   </g>
   <g id="patch_8">
    <path d="M 240.049541 361.015171 
Q 357.934326 270.780812 474.93131 181.226018 
" style="fill: none; stroke: #000000; stroke-linecap: round"/>
    <path d="M 470.539371 182.069151 
L 474.93131 181.226018 
L 472.970653 185.245449 
" style="fill: none; stroke: #000000; stroke-linecap: round"/>
   </g>
   <g id="text_22">
    <!-- the intersection between eq2 and eq3 -->
    <g transform="translate(133.824148 371.829963) scale(0.1 -0.1)">
     <use xlink:href="#DejaVuSans-74"/>
     <use xlink:href="#DejaVuSans-68" x="39.208984"/>
     <use xlink:href="#DejaVuSans-65" x="102.587891"/>
     <use xlink:href="#DejaVuSans-20" x="164.111328"/>
     <use xlink:href="#DejaVuSans-69" x="195.898438"/>
     <use xlink:href="#DejaVuSans-6e" x="223.681641"/>
     <use xlink:href="#DejaVuSans-74" x="287.060547"/>
     <use xlink:href="#DejaVuSans-65" x="326.269531"/>
     <use xlink:href="#DejaVuSans-72" x="387.792969"/>
     <use xlink:href="#DejaVuSans-73" x="428.90625"/>
     <use xlink:href="#DejaVuSans-65" x="481.005859"/>
     <use xlink:href="#DejaVuSans-63" x="542.529297"/>
     <use xlink:href="#DejaVuSans-74" x="597.509766"/>
     <use xlink:href="#DejaVuSans-69" x="636.71875"/>
     <use xlink:href="#DejaVuSans-6f" x="664.501953"/>
     <use xlink:href="#DejaVuSans-6e" x="725.683594"/>
     <use xlink:href="#DejaVuSans-20" x="789.0625"/>
     <use xlink:href="#DejaVuSans-62" x="820.849609"/>
     <use xlink:href="#DejaVuSans-65" x="884.326172"/>
     <use xlink:href="#DejaVuSans-74" x="945.849609"/>
     <use xlink:href="#DejaVuSans-77" x="985.058594"/>
     <use xlink:href="#DejaVuSans-65" x="1066.845703"/>
     <use xlink:href="#DejaVuSans-65" x="1128.369141"/>
     <use xlink:href="#DejaVuSans-6e" x="1189.892578"/>
     <use xlink:href="#DejaVuSans-20" x="1253.271484"/>
     <use xlink:href="#DejaVuSans-65" x="1285.058594"/>
     <use xlink:href="#DejaVuSans-71" x="1346.582031"/>
     <use xlink:href="#DejaVuSans-32" x="1410.058594"/>
     <use xlink:href="#DejaVuSans-20" x="1473.681641"/>
     <use xlink:href="#DejaVuSans-61" x="1505.46875"/>
     <use xlink:href="#DejaVuSans-6e" x="1566.748047"/>
     <use xlink:href="#DejaVuSans-64" x="1630.126953"/>
     <use xlink:href="#DejaVuSans-20" x="1693.603516"/>
     <use xlink:href="#DejaVuSans-65" x="1725.390625"/>
     <use xlink:href="#DejaVuSans-71" x="1786.914062"/>
     <use xlink:href="#DejaVuSans-33" x="1850.390625"/>
    </g>
   </g>
   <g id="patch_9">
    <path d="M 958.643009 91.744709 
Q 769.220754 135.155565 580.88828 178.31667 
" style="fill: none; stroke: #000000; stroke-linecap: round"/>
    <path d="M 585.23397 179.372595 
L 580.88828 178.31667 
L 584.340434 175.473673 
" style="fill: none; stroke: #000000; stroke-linecap: round"/>
   </g>
   <g id="text_23">
    <!-- the intersection between eq1 and eq2 -->
    <g transform="translate(894.733239 87.218199) scale(0.1 -0.1)">
     <use xlink:href="#DejaVuSans-74"/>
     <use xlink:href="#DejaVuSans-68" x="39.208984"/>
     <use xlink:href="#DejaVuSans-65" x="102.587891"/>
     <use xlink:href="#DejaVuSans-20" x="164.111328"/>
     <use xlink:href="#DejaVuSans-69" x="195.898438"/>
     <use xlink:href="#DejaVuSans-6e" x="223.681641"/>
     <use xlink:href="#DejaVuSans-74" x="287.060547"/>
     <use xlink:href="#DejaVuSans-65" x="326.269531"/>
     <use xlink:href="#DejaVuSans-72" x="387.792969"/>
     <use xlink:href="#DejaVuSans-73" x="428.90625"/>
     <use xlink:href="#DejaVuSans-65" x="481.005859"/>
     <use xlink:href="#DejaVuSans-63" x="542.529297"/>
     <use xlink:href="#DejaVuSans-74" x="597.509766"/>
     <use xlink:href="#DejaVuSans-69" x="636.71875"/>
     <use xlink:href="#DejaVuSans-6f" x="664.501953"/>
     <use xlink:href="#DejaVuSans-6e" x="725.683594"/>
     <use xlink:href="#DejaVuSans-20" x="789.0625"/>
     <use xlink:href="#DejaVuSans-62" x="820.849609"/>
     <use xlink:href="#DejaVuSans-65" x="884.326172"/>
     <use xlink:href="#DejaVuSans-74" x="945.849609"/>
     <use xlink:href="#DejaVuSans-77" x="985.058594"/>
     <use xlink:href="#DejaVuSans-65" x="1066.845703"/>
     <use xlink:href="#DejaVuSans-65" x="1128.369141"/>
     <use xlink:href="#DejaVuSans-6e" x="1189.892578"/>
     <use xlink:href="#DejaVuSans-20" x="1253.271484"/>
     <use xlink:href="#DejaVuSans-65" x="1285.058594"/>
     <use xlink:href="#DejaVuSans-71" x="1346.582031"/>
     <use xlink:href="#DejaVuSans-31" x="1410.058594"/>
     <use xlink:href="#DejaVuSans-20" x="1473.681641"/>
     <use xlink:href="#DejaVuSans-61" x="1505.46875"/>
     <use xlink:href="#DejaVuSans-6e" x="1566.748047"/>
     <use xlink:href="#DejaVuSans-64" x="1630.126953"/>
     <use xlink:href="#DejaVuSans-20" x="1693.603516"/>
     <use xlink:href="#DejaVuSans-65" x="1725.390625"/>
     <use xlink:href="#DejaVuSans-71" x="1786.914062"/>
     <use xlink:href="#DejaVuSans-32" x="1850.390625"/>
    </g>
   </g>
   <g id="text_24">
    <!-- All Lines In One Figure -->
    <g transform="translate(486.696563 37.2) scale(0.12 -0.12)">
     <defs>
      <path id="DejaVuSans-41" d="M 2188 4044 
L 1331 1722 
L 3047 1722 
L 2188 4044 
z
M 1831 4666 
L 2547 4666 
L 4325 0 
L 3669 0 
L 3244 1197 
L 1141 1197 
L 716 0 
L 50 0 
L 1831 4666 
z
" transform="scale(0.015625)"/>
      <path id="DejaVuSans-6c" d="M 603 4863 
L 1178 4863 
L 1178 0 
L 603 0 
L 603 4863 
z
" transform="scale(0.015625)"/>
      <path id="DejaVuSans-4c" d="M 628 4666 
L 1259 4666 
L 1259 531 
L 3531 531 
L 3531 0 
L 628 0 
L 628 4666 
z
" transform="scale(0.015625)"/>
      <path id="DejaVuSans-49" d="M 628 4666 
L 1259 4666 
L 1259 0 
L 628 0 
L 628 4666 
z
" transform="scale(0.015625)"/>
      <path id="DejaVuSans-4f" d="M 2522 4238 
Q 1834 4238 1429 3725 
Q 1025 3213 1025 2328 
Q 1025 1447 1429 934 
Q 1834 422 2522 422 
Q 3209 422 3611 934 
Q 4013 1447 4013 2328 
Q 4013 3213 3611 3725 
Q 3209 4238 2522 4238 
z
M 2522 4750 
Q 3503 4750 4090 4092 
Q 4678 3434 4678 2328 
Q 4678 1225 4090 567 
Q 3503 -91 2522 -91 
Q 1538 -91 948 565 
Q 359 1222 359 2328 
Q 359 3434 948 4092 
Q 1538 4750 2522 4750 
z
" transform="scale(0.015625)"/>
      <path id="DejaVuSans-46" d="M 628 4666 
L 3309 4666 
L 3309 4134 
L 1259 4134 
L 1259 2759 
L 3109 2759 
L 3109 2228 
L 1259 2228 
L 1259 0 
L 628 0 
L 628 4666 
z
" transform="scale(0.015625)"/>
      <path id="DejaVuSans-67" d="M 2906 1791 
Q 2906 2416 2648 2759 
Q 2391 3103 1925 3103 
Q 1463 3103 1205 2759 
Q 947 2416 947 1791 
Q 947 1169 1205 825 
Q 1463 481 1925 481 
Q 2391 481 2648 825 
Q 2906 1169 2906 1791 
z
M 3481 434 
Q 3481 -459 3084 -895 
Q 2688 -1331 1869 -1331 
Q 1566 -1331 1297 -1286 
Q 1028 -1241 775 -1147 
L 775 -588 
Q 1028 -725 1275 -790 
Q 1522 -856 1778 -856 
Q 2344 -856 2625 -561 
Q 2906 -266 2906 331 
L 2906 616 
Q 2728 306 2450 153 
Q 2172 0 1784 0 
Q 1141 0 747 490 
Q 353 981 353 1791 
Q 353 2603 747 3093 
Q 1141 3584 1784 3584 
Q 2172 3584 2450 3431 
Q 2728 3278 2906 2969 
L 2906 3500 
L 3481 3500 
L 3481 434 
z
" transform="scale(0.015625)"/>
      <path id="DejaVuSans-75" d="M 544 1381 
L 544 3500 
L 1119 3500 
L 1119 1403 
Q 1119 906 1312 657 
Q 1506 409 1894 409 
Q 2359 409 2629 706 
Q 2900 1003 2900 1516 
L 2900 3500 
L 3475 3500 
L 3475 0 
L 2900 0 
L 2900 538 
Q 2691 219 2414 64 
Q 2138 -91 1772 -91 
Q 1169 -91 856 284 
Q 544 659 544 1381 
z
M 1991 3584 
L 1991 3584 
z
" transform="scale(0.015625)"/>
     </defs>
     <use xlink:href="#DejaVuSans-41"/>
     <use xlink:href="#DejaVuSans-6c" x="68.408203"/>
     <use xlink:href="#DejaVuSans-6c" x="96.191406"/>
     <use xlink:href="#DejaVuSans-20" x="123.974609"/>
     <use xlink:href="#DejaVuSans-4c" x="155.761719"/>
     <use xlink:href="#DejaVuSans-69" x="211.474609"/>
     <use xlink:href="#DejaVuSans-6e" x="239.257812"/>
     <use xlink:href="#DejaVuSans-65" x="302.636719"/>
     <use xlink:href="#DejaVuSans-73" x="364.160156"/>
     <use xlink:href="#DejaVuSans-20" x="416.259766"/>
     <use xlink:href="#DejaVuSans-49" x="448.046875"/>
     <use xlink:href="#DejaVuSans-6e" x="477.539062"/>
     <use xlink:href="#DejaVuSans-20" x="540.917969"/>
     <use xlink:href="#DejaVuSans-4f" x="572.705078"/>
     <use xlink:href="#DejaVuSans-6e" x="651.416016"/>
     <use xlink:href="#DejaVuSans-65" x="714.794922"/>
     <use xlink:href="#DejaVuSans-20" x="776.318359"/>
     <use xlink:href="#DejaVuSans-46" x="808.105469"/>
     <use xlink:href="#DejaVuSans-69" x="858.375"/>
     <use xlink:href="#DejaVuSans-67" x="886.158203"/>
     <use xlink:href="#DejaVuSans-75" x="949.634766"/>
     <use xlink:href="#DejaVuSans-72" x="1013.013672"/>
     <use xlink:href="#DejaVuSans-65" x="1051.876953"/>
    </g>
   </g>
   <g id="legend_1">
    <g id="patch_10">
     <path d="M 142 95.234375 
L 291.646875 95.234375 
Q 293.646875 95.234375 293.646875 93.234375 
L 293.646875 50.2 
Q 293.646875 48.2 291.646875 48.2 
L 142 48.2 
Q 140 48.2 140 50.2 
L 140 93.234375 
Q 140 95.234375 142 95.234375 
z
" style="fill: #ffffff; opacity: 0.8; stroke: #cccccc; stroke-linejoin: miter"/>
    </g>
    <g id="line2d_34">
     <path d="M 144 56.298437 
L 154 56.298437 
L 164 56.298437 
" style="fill: none; stroke-dasharray: 9.6,2.4,1.5,2.4; stroke-dashoffset: 0; stroke: #ff4500; stroke-width: 1.5"/>
    </g>
    <g id="text_25">
     <!-- 10.2 x1 – 3.2 x2 = 149 -->
     <g transform="translate(172 59.798437) scale(0.1 -0.1)">
      <use xlink:href="#DejaVuSans-31"/>
      <use xlink:href="#DejaVuSans-30" x="63.623047"/>
      <use xlink:href="#DejaVuSans-2e" x="127.246094"/>
      <use xlink:href="#DejaVuSans-32" x="159.033203"/>
      <use xlink:href="#DejaVuSans-20" x="222.65625"/>
      <use xlink:href="#DejaVuSans-78" x="254.443359"/>
      <use xlink:href="#DejaVuSans-31" x="313.623047"/>
      <use xlink:href="#DejaVuSans-20" x="377.246094"/>
      <use xlink:href="#DejaVuSans-2013" x="409.033203"/>
      <use xlink:href="#DejaVuSans-20" x="459.033203"/>
      <use xlink:href="#DejaVuSans-33" x="490.820312"/>
      <use xlink:href="#DejaVuSans-2e" x="554.443359"/>
      <use xlink:href="#DejaVuSans-32" x="586.230469"/>
      <use xlink:href="#DejaVuSans-20" x="649.853516"/>
      <use xlink:href="#DejaVuSans-78" x="681.640625"/>
      <use xlink:href="#DejaVuSans-32" x="740.820312"/>
      <use xlink:href="#DejaVuSans-20" x="804.443359"/>
      <use xlink:href="#DejaVuSans-3d" x="836.230469"/>
      <use xlink:href="#DejaVuSans-20" x="920.019531"/>
      <use xlink:href="#DejaVuSans-31" x="951.806641"/>
      <use xlink:href="#DejaVuSans-34" x="1015.429688"/>
      <use xlink:href="#DejaVuSans-39" x="1079.052734"/>
     </g>
    </g>
    <g id="line2d_35">
     <path d="M 144 70.976562 
L 154 70.976562 
L 164 70.976562 
" style="fill: none; stroke-dasharray: 1.5,2.475; stroke-dashoffset: 0; stroke: #6b8e23; stroke-width: 1.5"/>
    </g>
    <g id="text_26">
     <!-- – 5.8 x1 + 16 x2 = 83 -->
     <g transform="translate(172 74.476562) scale(0.1 -0.1)">
      <use xlink:href="#DejaVuSans-2013"/>
      <use xlink:href="#DejaVuSans-20" x="50"/>
      <use xlink:href="#DejaVuSans-35" x="81.787109"/>
      <use xlink:href="#DejaVuSans-2e" x="145.410156"/>
      <use xlink:href="#DejaVuSans-38" x="177.197266"/>
      <use xlink:href="#DejaVuSans-20" x="240.820312"/>
      <use xlink:href="#DejaVuSans-78" x="272.607422"/>
      <use xlink:href="#DejaVuSans-31" x="331.787109"/>
      <use xlink:href="#DejaVuSans-20" x="395.410156"/>
      <use xlink:href="#DejaVuSans-2b" x="427.197266"/>
      <use xlink:href="#DejaVuSans-20" x="510.986328"/>
      <use xlink:href="#DejaVuSans-31" x="542.773438"/>
      <use xlink:href="#DejaVuSans-36" x="606.396484"/>
      <use xlink:href="#DejaVuSans-20" x="670.019531"/>
      <use xlink:href="#DejaVuSans-78" x="701.806641"/>
      <use xlink:href="#DejaVuSans-32" x="760.986328"/>
      <use xlink:href="#DejaVuSans-20" x="824.609375"/>
      <use xlink:href="#DejaVuSans-3d" x="856.396484"/>
      <use xlink:href="#DejaVuSans-20" x="940.185547"/>
      <use xlink:href="#DejaVuSans-38" x="971.972656"/>
      <use xlink:href="#DejaVuSans-33" x="1035.595703"/>
     </g>
    </g>
    <g id="line2d_36">
     <path d="M 144 85.654687 
L 154 85.654687 
L 164 85.654687 
" style="fill: none; stroke-dasharray: 5.55,2.4; stroke-dashoffset: 0; stroke: #c71585; stroke-width: 1.5"/>
    </g>
    <g id="text_27">
     <!-- 10.3 x1 + 7.3 x2 = 234 -->
     <g transform="translate(172 89.154687) scale(0.1 -0.1)">
      <use xlink:href="#DejaVuSans-31"/>
      <use xlink:href="#DejaVuSans-30" x="63.623047"/>
      <use xlink:href="#DejaVuSans-2e" x="127.246094"/>
      <use xlink:href="#DejaVuSans-33" x="159.033203"/>
      <use xlink:href="#DejaVuSans-20" x="222.65625"/>
      <use xlink:href="#DejaVuSans-78" x="254.443359"/>
      <use xlink:href="#DejaVuSans-31" x="313.623047"/>
      <use xlink:href="#DejaVuSans-20" x="377.246094"/>
      <use xlink:href="#DejaVuSans-2b" x="409.033203"/>
      <use xlink:href="#DejaVuSans-20" x="492.822266"/>
      <use xlink:href="#DejaVuSans-37" x="524.609375"/>
      <use xlink:href="#DejaVuSans-2e" x="588.232422"/>
      <use xlink:href="#DejaVuSans-33" x="620.019531"/>
      <use xlink:href="#DejaVuSans-20" x="683.642578"/>
      <use xlink:href="#DejaVuSans-78" x="715.429688"/>
      <use xlink:href="#DejaVuSans-32" x="774.609375"/>
      <use xlink:href="#DejaVuSans-20" x="838.232422"/>
      <use xlink:href="#DejaVuSans-3d" x="870.019531"/>
      <use xlink:href="#DejaVuSans-20" x="953.808594"/>
      <use xlink:href="#DejaVuSans-32" x="985.595703"/>
      <use xlink:href="#DejaVuSans-33" x="1049.21875"/>
      <use xlink:href="#DejaVuSans-34" x="1112.841797"/>
     </g>
    </g>
   </g>
  </g>
 </g>
 <defs>
  <clipPath id="pb59ee2a5c5">
   <rect x="135" y="43.2" width="837" height="277.2"/>
  </clipPath>
 </defs>
</svg>
